<?xml version="1.0" encoding="UTF-8"?>
<svg width="158px" height="42px" viewBox="0 0 158 42" version="1.1" xmlns="http://www.w3.org/2000/svg" xmlns:xlink="http://www.w3.org/1999/xlink">
    <!-- Generator: Sketch 60.1 (88133) - https://sketch.com -->
    <title>Group 36</title>
    <desc>Created with Sketch.</desc>
    <defs>
        <polygon id="path-1" points="0 41.7174713 157.87638 41.7174713 157.87638 -0.00019720004 0 -0.00019720004"></polygon>
    </defs>
    <g id="Symbols" stroke="none" stroke-width="1" fill="none" fill-rule="evenodd">
        <g id="Menu/Inicio" transform="translate(-30.000000, -29.000000)">
            <g id="Group-3">
                <g id="Group-36" transform="translate(30.000000, 29.000000)">
                    <path d="M2.36935849,27.7824291 L2.36935849,27.7824291 C3.08322263,28.8266033 4.51292292,29.0109853 5.45356712,28.1788012 L19.8787501,15.4416506 L28.2765138,22.8731341 C29.137292,23.6362982 30.4388122,23.5130482 31.1497184,22.600998 C31.8409045,21.7185278 31.7166685,20.4278536 30.8706803,19.7021574 L19.674648,10.0847115 L2.72924856,24.8727425 C1.89706439,25.5994246 1.73930436,26.8615049 2.36935849,27.7824291" id="Fill-1" fill="#490E6F"></path>
                    <path d="M0.415697685,40.6254761 L0.415697685,40.6254761 C1.15322584,41.6607763 2.58785613,41.8283964 3.53047232,40.9893102 L20.0982337,26.2624112 L30.1041638,35.245859 C31.021144,36.0691692 32.4212642,35.9192972 33.1548484,34.919493 C33.8233565,34.0094148 33.6912325,32.7187405 32.8531323,31.9723384 L20.0982337,20.589952 L0.749951754,37.6418395 C-0.101952421,38.3911997 -0.247880451,39.6937059 0.415697685,40.6254761" id="Fill-3" fill="#490E6F"></path>
                    <path d="M4.3866163,16.0467589 L4.3866163,16.0467589 C5.01765643,16.8661251 6.17916467,16.9874031 6.95613283,16.3139649 L20.0896555,4.93749461 L26.5755648,10.7647558 C27.323939,11.4362219 28.4548812,11.3652299 29.1194454,10.6040378 C29.8017575,9.82115361 29.7258355,8.60837336 28.9498533,7.92408922 L19.9861255,0.000591600121 L4.62917235,13.4703404 C3.8877002,14.1211005 3.78121217,15.2609167 4.3866163,16.0467589" id="Fill-5" fill="#490E6F"></path>
                    <path d="M54.4636932,17.2552007 L54.4636932,28.5882871 C54.4636932,29.4234292 53.786311,30.1008114 52.9511688,30.1008114 L52.2728007,30.1008114 C51.5007626,30.1008114 50.8736664,29.4737152 50.8736664,28.7016771 C50.8736664,28.6573071 50.8223944,28.6375871 50.7888704,28.6671671 C50.1174043,29.2922912 49.4429801,29.7458513 48.766584,30.0278474 C48.0615938,30.3216754 47.2974437,30.4685894 46.4731475,30.4685894 C44.6263691,30.4685894 43.0290488,29.7517673 41.6811865,28.319109 C40.3323383,26.8854647 39.6589001,25.1037623 39.6589001,22.9740019 C39.6589001,20.7653615 40.3106463,18.9550651 41.6151245,17.5431128 C42.9196028,16.1321465 44.5031191,15.4271564 46.3696175,15.4271564 C47.2274377,15.4271564 48.0329998,15.5888604 48.785318,15.9132545 C49.5060841,16.2238445 50.1726203,16.6823346 50.7888704,17.2887247 C50.8214084,17.3202767 50.8746524,17.2995707 50.8746524,17.2552007 C50.8736664,16.4121706 51.5579506,15.7288724 52.3999947,15.7288724 L52.9373648,15.7288724 C53.780395,15.7288724 54.4636932,16.4121706 54.4636932,17.2552007 M47.1012296,18.740117 C45.9909934,18.740117 45.0690832,19.1325451 44.3354991,19.9174013 C43.6019149,20.7012714 43.2351229,21.7069916 43.2351229,22.9345619 C43.2351229,24.1246641 43.5812089,25.1116503 44.2733811,25.8945345 C45.1144392,26.8470107 46.4110295,27.3055008 47.6711378,27.1477408 C48.5526219,27.0373087 49.3019821,26.6557267 49.9182322,26.0049665 C50.6606904,25.2201104 51.0324125,24.1926982 51.0324125,22.9217439 C51.0324125,21.6764256 50.6606904,20.6687334 49.9182322,19.8976813 C49.1757741,19.1246571 48.2361159,18.740117 47.1012296,18.740117" id="Fill-7" fill="#490E6F"></path>
                    <path d="M59.4928858,10.2722487 L59.4928858,10.2722487 C60.483816,10.2722487 61.2874062,11.0758389 61.2874062,12.0667691 L61.2874062,28.3052064 C61.2874062,29.2961366 60.483816,30.0997268 59.4928858,30.0997268 C58.5019556,30.0997268 57.6983654,29.2961366 57.6983654,28.3052064 L57.6983654,12.0667691 C57.6983654,11.0758389 58.5019556,10.2722487 59.4928858,10.2722487" id="Fill-9" fill="#490E6F"></path>
                    <path d="M68.1117108,12.0536553 L68.1117108,17.3731264 C68.7604989,16.7233522 69.461545,16.2372541 70.2158352,15.9128601 C70.9691393,15.589452 71.7756875,15.426762 72.6344937,15.426762 C74.5019781,15.426762 76.0884524,16.1327381 77.3949027,17.5427184 C78.7003669,18.9546707 79.3540851,20.7659531 79.3540851,22.9736075 C79.3540851,25.1033679 78.6786749,26.8850703 77.3288406,28.3187146 C75.9790064,29.7513729 74.378728,30.469181 72.5299777,30.469181 C71.7066675,30.469181 70.9385733,30.321281 70.2286532,30.027453 C69.518733,29.7346109 68.8127569,29.2544288 68.1117108,28.5888787 C68.1117108,29.4230348 67.4343286,30.101403 66.5991864,30.101403 L66.0608303,30.101403 C65.2256882,30.101403 64.548306,29.4230348 64.548306,28.5888787 L64.548306,12.0536553 C64.548306,11.0696271 65.3459802,10.2719529 66.3300084,10.2719529 C67.3140366,10.2719529 68.1117108,11.0696271 68.1117108,12.0536553 M71.8851335,18.7397226 C70.7541913,18.7397226 69.8165051,19.1262347 69.071089,19.8963009 C68.3266588,20.668339 67.9539507,21.6770172 67.9539507,22.9213495 C67.9539507,24.1932898 68.3266588,25.220702 69.071089,26.0045721 C69.8165051,26.7884423 70.7541913,27.1818564 71.8851335,27.1818564 C72.9805798,27.1818564 73.9034759,26.7825263 74.6528361,25.9858381 C75.4031822,25.187178 75.7768763,24.1696258 75.7768763,22.9341675 C75.7768763,21.7065972 75.4090982,20.701863 74.6725561,19.9170069 C73.9360139,19.1331367 73.0072018,18.7397226 71.8851335,18.7397226" id="Fill-11" fill="#490E6F"></path>
                    <path d="M89.044002,15.4266634 C90.3938363,15.4266634 91.6628186,15.7638754 92.8509488,16.4392856 C94.0380931,17.1146957 94.9649333,18.0297039 95.6324554,19.1872681 C96.2970195,20.3438464 96.6302876,21.5931086 96.6302876,22.9340689 C96.6302876,24.2839032 96.2950475,25.5469694 95.6245674,26.7212957 C94.9540873,27.8956219 94.0400651,28.8135881 92.8844728,29.4761802 C91.7269086,30.1377864 90.4510243,30.4680964 89.057806,30.4680964 C87.0069256,30.4680964 85.2548033,29.7384563 83.805383,28.279176 C82.3530047,26.8198957 81.6282945,25.0470673 81.6282945,22.9606909 C81.6282945,20.7254284 82.4486467,18.8628741 84.088365,17.3730278 C85.5259533,16.0754515 87.1765177,15.4266634 89.044002,15.4266634 M89.1041481,18.8056861 C87.9889818,18.8056861 87.0591836,19.1931841 86.3177115,19.9691663 C85.5752533,20.7451485 85.2045173,21.7380507 85.2045173,22.9478729 C85.2045173,24.1922052 85.5722953,25.2008834 86.3048935,25.9719355 C87.0374916,26.7429877 87.9663038,27.1285138 89.0903441,27.1285138 C90.2143843,27.1285138 91.1500985,26.7390437 91.8965006,25.9581315 C92.6419168,25.1782054 93.0146249,24.1754432 93.0146249,22.9478729 C93.0146249,21.7203026 92.6478328,20.7234564 91.9152346,19.9563483 C91.1816505,19.1892401 90.2449503,18.8056861 89.1041481,18.8056861" id="Fill-13" fill="#490E6F"></path>
                    <path d="M100.259754,15.7944414 L100.259754,15.7944414 C101.109687,15.7944414 101.798901,16.4826696 101.798901,17.3335878 L101.798901,17.5958638 C102.131183,16.8859437 102.573897,16.3475875 103.126057,15.9788235 C103.678217,15.6100594 104.283621,15.4266634 104.940297,15.4266634 C105.404703,15.4266634 105.891787,15.5489274 106.40155,15.7944414 L105.282439,18.8855521 C104.861417,18.673562 104.515331,18.569046 104.244181,18.569046 C103.691035,18.569046 103.224657,18.9102021 102.843075,19.5944862 C102.462479,20.2787704 102.271195,21.6187446 102.271195,23.618353 L102.284999,24.3154552 L102.284999,30.1013044 L98.721594,30.1013044 L98.721594,17.3335878 C98.721594,16.4826696 99.4098222,15.7944414 100.259754,15.7944414" id="Fill-15" fill="#490E6F"></path>
                    <path d="M120.311054,15.7944414 L120.744895,15.7944414 C121.616519,15.7944414 122.322495,16.5014036 122.322495,17.3730278 L122.322495,28.5887801 C122.322495,29.4229362 121.646099,30.1013044 120.810957,30.1013044 L120.245978,30.1013044 C119.40985,30.1013044 118.733454,29.4229362 118.733454,28.5887801 C118.032408,29.2543302 117.331362,29.7345123 116.626372,30.0283404 C115.920396,30.3211824 115.156245,30.4690824 114.333921,30.4690824 C112.486157,30.4690824 110.888837,29.7512743 109.539988,28.318616 C108.192126,26.8849717 107.517702,25.1032693 107.517702,22.9735089 C107.517702,20.7648685 108.170434,18.9545721 109.475898,17.5426198 C110.77939,16.1326395 112.363893,15.4266634 114.228419,15.4266634 C115.086239,15.4266634 115.892788,15.5883674 116.645106,15.9127615 C117.397424,16.2371555 118.09354,16.7232536 118.733454,17.3730278 C118.733454,16.5014036 119.43943,15.7944414 120.311054,15.7944414 M114.960031,18.739624 C113.850781,18.739624 112.929857,19.1330381 112.195287,19.9178943 C111.460717,20.7017644 111.093925,21.7064986 111.093925,22.9340689 C111.093925,24.1705132 111.467619,25.1870794 112.214021,25.9847535 C112.961409,26.7834137 113.881347,27.1817578 114.972849,27.1817578 C116.099848,27.1817578 117.035562,26.7883437 117.77802,26.0044735 C118.520478,25.2206034 118.8922,24.1931912 118.8922,22.9222369 C118.8922,21.6769186 118.520478,20.6682404 117.77802,19.8971883 C117.035562,19.1251501 116.09689,18.739624 114.960031,18.739624" id="Fill-17" fill="#490E6F"></path>
                    <path d="M138.304572,10.2722487 L138.304572,10.2722487 C139.296488,10.2722487 140.099093,11.0758389 140.099093,12.0667691 L140.099093,28.5881885 C140.099093,29.4233306 139.423682,30.0997268 138.587554,30.0997268 L138.022576,30.0997268 C137.186448,30.0997268 136.511038,29.4233306 136.511038,28.5881885 C135.809992,29.2547246 135.107959,29.7339207 134.402969,30.0277488 C133.696993,30.3215768 132.933829,30.4684908 132.111505,30.4684908 C130.26374,30.4684908 128.66642,29.7516687 127.316586,28.3180244 C125.967738,26.8863521 125.295285,25.1036637 125.295285,22.9739033 C125.295285,20.7652629 125.947032,18.9559525 127.25151,17.5430142 C128.555988,16.1320479 130.141476,15.4270578 132.005017,15.4270578 C132.862837,15.4270578 133.669385,15.5897478 134.421703,15.9131559 C135.174021,16.2375499 135.870138,16.723648 136.511038,17.3724362 L136.511038,12.0667691 C136.511038,11.0758389 137.313642,10.2722487 138.304572,10.2722487 M132.737615,18.7400184 C131.627379,18.7400184 130.706455,19.1324465 129.971884,19.9163167 C129.2383,20.7011728 128.871508,21.707879 128.871508,22.9344633 C128.871508,24.1699216 129.244216,25.1874738 129.990618,25.9851479 C130.738007,26.7828221 131.657945,27.1811662 132.749447,27.1811662 C133.877431,27.1811662 134.811173,26.7887381 135.554618,26.0048679 C136.297076,25.2200118 136.668798,24.1916136 136.668798,22.9206593 C136.668798,21.676327 136.297076,20.6686348 135.554618,19.8965967 C134.811173,19.1255445 133.872501,18.7400184 132.737615,18.7400184" id="Fill-19" fill="#490E6F"></path>
                    <path d="M155.864841,15.7944414 L156.298681,15.7944414 C157.170306,15.7944414 157.876282,16.5014036 157.876282,17.3730278 L157.876282,28.5887801 C157.876282,29.4229362 157.199886,30.1013044 156.364743,30.1013044 L155.798779,30.1013044 C154.963637,30.1013044 154.287241,29.4229362 154.287241,28.5887801 C153.586195,29.2543302 152.884163,29.7345123 152.179173,30.0283404 C151.474182,30.3211824 150.710032,30.4690824 149.887708,30.4690824 C148.039944,30.4690824 146.442623,29.7512743 145.093775,28.318616 C143.745913,26.8849717 143.071489,25.1032693 143.071489,22.9735089 C143.071489,20.7648685 143.724221,18.9545721 145.028699,17.5426198 C146.333177,16.1326395 147.91768,15.4266634 149.782206,15.4266634 C150.640026,15.4266634 151.445588,15.5883674 152.198893,15.9127615 C152.951211,16.2371555 153.647327,16.7232536 154.287241,17.3730278 C154.287241,16.5014036 154.993217,15.7944414 155.864841,15.7944414 M150.513818,18.739624 C149.404568,18.739624 148.482658,19.1330381 147.748088,19.9178943 C147.014504,20.7017644 146.647711,21.7064986 146.647711,22.9340689 C146.647711,24.2562952 147.07465,25.3280774 147.929512,26.1474436 C148.666054,26.8553917 149.685578,27.2162678 150.706088,27.1778138 C151.75322,27.1383738 152.627803,26.7469317 153.330821,26.0044735 C154.073279,25.2206034 154.445001,24.1931912 154.445001,22.9222369 C154.445001,21.6769186 154.073279,20.6682404 153.330821,19.8971883 C152.588363,19.1251501 151.64969,18.739624 150.513818,18.739624" id="Fill-21" fill="#490E6F"></path>
                    <mask id="mask-2" fill="white">
                        <use xlink:href="#path-1"></use>
                    </mask>
                    <g id="Clip-24"></g>
                    <polygon id="Fill-23" fill="#490E6F" mask="url(#mask-2)" points="40.9653504 41.5942213 42.1130546 41.5942213 42.1130546 35.7817501 40.9653504 35.7817501"></polygon>
                    <polygon id="Fill-25" fill="#490E6F" mask="url(#mask-2)" points="48.0326054 41.5941227 45.3920969 37.4706699 45.3920969 41.5941227 44.2621407 41.5941227 44.2621407 35.7816515 45.671135 35.7816515 48.0897935 39.6270523 48.0897935 35.7816515 49.2217217 35.7816515 49.2217217 41.5941227"></polygon>
                    <polygon id="Fill-26" fill="#490E6F" mask="url(#mask-2)" points="56.7389872 41.5941227 56.7389872 37.5199699 55.0667309 41.5941227 54.1241147 41.5941227 52.4518583 37.5525079 52.4518583 41.5941227 51.3692301 41.5941227 51.3692301 35.7816515 52.8610484 35.7816515 54.6072548 39.9790544 56.3130351 35.7816515 57.8541535 35.7816515 57.8541535 41.5941227"></polygon>
                    <path d="M62.6425648,35.6598805 C64.2250952,35.6598805 65.6350754,36.8154727 65.6350754,38.6918311 C65.6350754,40.5622735 64.2250952,41.7178657 62.6425648,41.7178657 C61.0689085,41.7178657 59.6599142,40.5622735 59.6599142,38.6918311 C59.6599142,36.8154727 61.0689085,35.6598805 62.6425648,35.6598805 M62.6425648,40.6184755 C63.544755,40.6184755 64.4627212,39.9953234 64.4627212,38.6839431 C64.4627212,37.3725629 63.544755,36.7494107 62.6425648,36.7494107 C61.7492487,36.7494107 60.8312825,37.3725629 60.8312825,38.6839431 C60.8312825,39.9953234 61.7492487,40.6184755 62.6425648,40.6184755" id="Fill-27" fill="#490E6F" mask="url(#mask-2)"></path>
                    <path d="M69.530072,35.7821445 C70.6610143,35.7821445 71.3009284,36.4467087 71.3009284,37.3479129 C71.3009284,37.946415 70.9400523,38.4305411 70.4559262,38.5952031 C71.0218904,38.7332431 71.4813664,39.2508932 71.4813664,39.9716594 C71.4813664,40.9142756 70.7763763,41.5956017 69.6848741,41.5956017 L67.4397516,41.5956017 L67.4397516,35.7821445 L69.530072,35.7821445 Z M69.356536,38.185027 C69.8741861,38.185027 70.1857622,37.898101 70.1857622,37.4544009 C70.1857622,37.0116868 69.8988361,36.7336347 69.348648,36.7336347 L68.5549178,36.7336347 L68.5549178,38.185027 L69.356536,38.185027 Z M69.471898,40.6519995 C70.0220861,40.6519995 70.3494382,40.3650735 70.3494382,39.8977094 C70.3494382,39.4382333 70.0536382,39.1187692 69.489646,39.1187692 L68.5549178,39.1187692 L68.5549178,40.6519995 L69.471898,40.6519995 Z" id="Fill-28" fill="#490E6F" mask="url(#mask-2)"></path>
                    <polygon id="Fill-29" fill="#490E6F" mask="url(#mask-2)" points="73.260801 41.5942213 74.4085052 41.5942213 74.4085052 35.7817501 73.260801 35.7817501"></polygon>
                    <polygon id="Fill-30" fill="#490E6F" mask="url(#mask-2)" points="76.5563095 41.5941227 76.5563095 35.7816515 77.6862657 35.7816515 77.6862657 40.5114945 80.2774742 40.5114945 80.2774742 41.5941227"></polygon>
                    <polygon id="Fill-31" fill="#490E6F" mask="url(#mask-2)" points="81.9671828 41.5942213 83.114887 41.5942213 83.114887 35.7817501 81.9671828 35.7817501"></polygon>
                    <path d="M88.7224674,40.2663748 L86.3619829,40.2663748 L85.8778568,41.5945171 L84.6808525,41.5945171 L86.911185,35.7820459 L88.2225653,35.7820459 L90.4361357,41.5945171 L89.2056075,41.5945171 L88.7224674,40.2663748 Z M86.738635,39.2330466 L88.3448293,39.2330466 L87.5432111,37.0372242 L86.738635,39.2330466 Z" id="Fill-32" fill="#490E6F" mask="url(#mask-2)"></path>
                    <path d="M93.7323344,39.3563953 L93.1417203,39.3563953 L93.1417203,41.5956017 L92.00289,41.5956017 L92.00289,35.7821445 L94.2736485,35.7821445 C95.4045907,35.7821445 96.1263429,36.5610847 96.1263429,37.5697629 C96.1263429,38.3822271 95.6501048,38.9955192 94.8879266,39.2173692 L96.1352169,41.5956017 L94.8721506,41.5956017 L93.7323344,39.3563953 Z M94.0606725,38.3822271 C94.6335386,38.3822271 94.9697647,38.053889 94.9697647,37.5776509 C94.9697647,37.0856368 94.6335386,36.7661727 94.0606725,36.7661727 L93.1417203,36.7661727 L93.1417203,38.3822271 L94.0606725,38.3822271 Z" id="Fill-33" fill="#490E6F" mask="url(#mask-2)"></path>
                    <polygon id="Fill-34" fill="#490E6F" mask="url(#mask-2)" points="97.9472881 41.5942213 99.0949923 41.5942213 99.0949923 35.7817501 97.9472881 35.7817501"></polygon>
                    <path d="M104.701587,40.2663748 L102.341102,40.2663748 L101.856976,41.5945171 L100.659972,41.5945171 L102.890304,35.7820459 L104.201685,35.7820459 L106.415255,41.5945171 L105.184727,41.5945171 L104.701587,40.2663748 Z M102.717754,39.2330466 L104.323949,39.2330466 L103.52233,37.0372242 L102.717754,39.2330466 Z" id="Fill-35" fill="#490E6F" mask="url(#mask-2)"></path>
                </g>
            </g>
        </g>
    </g>
</svg>